#!OML:ASF I:\Actors\actors\Patient Classification 1\Patient 1\Session 1\Subject1.ASF
:FULLY-SPECIFIED
:DEGREES
986
root 0.765205 17.5375 9.37205 10.4803 -1.45334 -8.87933
lowerback 0.234596 5.39725 10.1004
upperback -7.12273 7.59271 -1.74774
thorax -6.1539 3.15979 -7.79693
lowerneck -13.5876 -7.53004 -4.18232
upperneck 29.3831 -13.2294 10.6655
head 13.1795 -4.99364 2.75525
rclavicle 2.47984e-014 -1.59028e-014
rhumerus 16.2599 11.6139 -92.3611
rradius 43.1791
rwrist 8.9561
rhand -11.8019 -26.0126
rfingers 7.12502
rthumb 14.2479 -415.504
lclavicle 2.47984e-014 -1.59028e-014
lhumerus -68.7497 55.2863 21.5736
lradius 24.3589
lwrist -16.76
lhand -35.947 -34.2144
lfingers 7.12502
lthumb -9.05869 -4.42891
rfemur -3.55345 28.5486 25.0123
rtibia 0.897569
rfoot -12.718 -30.0235
rtoes 7.24665
lfemur 5.1222 -47.3062 -12.718
ltibia -5.1627
lfoot -27.8533 55.4699
ltoes 17.3089
987
root 0.764827 17.5398 9.37329 10.4762 -1.70246 -8.87461
lowerback 0.275644 5.44499 10.0428
upperback -7.12193 7.65922 -1.73617
thorax -6.17046 3.19531 -7.75754
lowerneck -13.8687 -7.52807 -4.19042
upperneck 29.5218 -13.2245 10.6034
head 13.2931 -4.98248 2.72594
rclavicle -5.86415e-014 -3.89618e-014
rhumerus 16.3906 11.3251 -92.6945
rradius 41.9916
rwrist 9.0516
rhand -11.6524 -25.845
rfingers 7.12502
rthumb 14.3919 -415.326
lclavicle -5.86415e-014 -3.89618e-014
lhumerus -69.1091 55.4552 21.1174
lradius 24.182
lwrist -16.9205
lhand -36.3536 -34.0403
lfingers 7.12502
lthumb -9.45096 -4.27222
rfemur -3.58445 28.5964 24.9836
rtibia 0.941735
rfoot -12.6295 -29.8418
rtoes 7.07997
lfemur 5.36828 -47.5224 -12.9409
ltibia -5.18704
lfoot -28.8085 55.699
ltoes 18.1007
988
root 0.765399 17.5407 9.37468 10.5154 -1.87245 -8.8557
lowerback 0.260043 5.47759 9.97944
upperback -7.12787 7.69924 -1.72359
thorax -6.16804 3.21918 -7.70781
lowerneck -14.2147 -7.52759 -4.10778
upperneck 29.6773 -13.2057 10.4143
head 13.4076 -4.96782 2.63195
rclavicle -8.41853e-014 -2.46493e-014
rhumerus 16.571 10.1778 -93.3484
rradius 40.6805
rwrist 10.7319
rhand -11.6097 -25.4817
rfingers 7.12502
rthumb 14.4331 -414.96
lclavicle -8.41853e-014 -2.46493e-014
lhumerus -69.6839 55.7197 20.3801
lradius 24.0807
lwrist -16.771
lhand -35.9869 -34.8608
lfingers 7.12502
lthumb -9.09717 -5.07699
rfemur -3.64268 28.6381 24.9212
rtibia 0.942687
rfoot -12.5772 -29.7416
rtoes 6.98513
lfemur 5.47098 -47.6707 -13.0696
ltibia -5.18846
lfoot -29.4449 55.8429
ltoes 18.5698
989
root 0.766059 17.5404 9.3766 10.5417 -1.95386 -8.90745
lowerback 0.257328 5.49353 9.98098
upperback -7.13512 7.72266 -1.68601
thorax -6.17456 3.23111 -7.66889
lowerneck -14.5918 -7.5657 -4.12519
upperneck 29.8839 -13.2523 10.3088
head 13.574 -4.9789 2.57561
rclavicle 4.47266e-016 -2.3059e-014
rhumerus 16.6821 9.65662 -93.8361
rradius 39.6966
rwrist 10.2739
rhand -12.5178 -25.5476
rfingers 7.12502
rthumb 13.558 -415.086
lclavicle 4.47266e-016 -2.3059e-014
lhumerus -69.5637 55.7702 20.6089
lradius 24.1251
lwrist -16.7955
lhand -36.2943 -34.0742
lfingers 7.12502
lthumb -9.39378 -4.30356
rfemur -3.65776 28.7266 24.963
rtibia 0.919194
rfoot -12.5831 -29.7571
rtoes 6.99896
lfemur 5.50309 -47.6782 -13.0378
ltibia -5.20734
lfoot -29.5549 55.913
ltoes 18.6237
990
root 0.765376 17.5397 9.37846 10.5484 -2.0165 -8.96856
lowerback 0.269301 5.48088 9.96557
upperback -7.12198 7.70896 -1.62075
thorax -6.18017 3.22695 -7.59155
lowerneck -14.9279 -7.59993 -4.26487
upperneck 30.0359 -13.3006 10.3503
head 13.733 -4.9899 2.59763
rclavicle -6.80341e-014 -2.70347e-014
rhumerus 16.9208 8.78336 -94.3806
rradius 38.6469
rwrist 11.0822
rhand -12.3851 -25.2795
rfingers 7.12502
rthumb 13.6858 -414.809
lclavicle -6.80341e-014 -2.70347e-014
lhumerus -69.4636 55.8597 20.8887
lradius 24.2411
lwrist -16.9121
lhand -36.6311 -33.2572
lfingers 7.12502
lthumb -9.71877 -3.50146
rfemur -3.64841 28.8233 25.0363
rtibia 0.902709
rfoot -12.5659 -29.8045
rtoes 7.07429
lfemur 5.54546 -47.6562 -12.9993
ltibia -5.21133
lfoot -29.6682 55.9369
ltoes 18.6908
991
root 0.764889 17.539 9.38041 10.553 -2.0393 -8.96664
lowerback 0.278704 5.47531 9.92926
upperback -7.13045 7.70223 -1.60723
thorax -6.20175 3.22428 -7.55908
lowerneck -15.1082 -7.64 -4.42598
upperneck 30.0609 -13.3771 10.5204
head 13.8213 -5.01085 2.67235
rclavicle 8.44835e-015 3.89618e-014
rhumerus 17.1464 7.98759 -94.7951
rradius 37.7242
rwrist 11.8707
rhand -12.3294 -25.1082
rfingers 7.12502
rthumb 13.7396 -414.635
lclavicle 8.44835e-015 3.89618e-014
lhumerus -69.6684 56.009 20.6511
lradius 24.3331
lwrist -16.738
lhand -36.0512 -34.1579
lfingers 7.12502
lthumb -9.15921 -4.37685
rfemur -3.63092 28.8638 25.0436
rtibia 0.889268
rfoot -12.5732 -29.8434
rtoes 7.16114
lfemur 5.60239 -47.7294 -13.0556
ltibia -5.2018
lfoot -29.7945 55.9975
ltoes 18.7264
992
root 0.765342 17.5384 9.38245 10.5506 -2.02355 -8.95682
lowerback 0.285228 5.46695 9.90568
upperback -7.15947 7.69209 -1.61571
thorax -6.24057 3.21673 -7.55824
lowerneck -15.2179 -7.64619 -4.52567
upperneck 30.0548 -13.4187 10.698
head 13.8734 -5.01279 2.74839
rclavicle -3.96575e-014 -6.36111e-015
rhumerus 17.2534 7.51081 -95.1258
rradius 37.029
rwrist 11.9483
rhand -12.3906 -25.1162
rfingers 7.12502
rthumb 13.6806 -414.647
lclavicle -3.96575e-014 -6.36111e-015
lhumerus -70.4056 56.2898 19.5984
lradius 24.3744
lwrist -16.0787
lhand -34.1107 -36.976
lfingers 7.12502
lthumb -7.2864 -7.12142
rfemur -3.59753 28.8478 25.0381
rtibia 0.861448
rfoot -12.5877 -29.8379
rtoes 7.14438
lfemur 5.64557 -47.8074 -13.1086
ltibia -5.20648
lfoot -29.7824 56.0545
ltoes 18.6965
993
root 0.766064 17.538 9.38415 10.5579 -1.98816 -8.97446
lowerback 0.260363 5.44976 9.90731
upperback -7.18444 7.66758 -1.61951
thorax -6.25777 3.20235 -7.56218
lowerneck -15.3416 -7.6309 -4.47077
upperneck 30.0868 -13.4203 10.7079
head 13.9118 -4.99932 2.7393
rclavicle -1.01778e-013 -7.15625e-015
rhumerus 17.2967 7.04023 -95.5688
rradius 36.4481
rwrist 11.8807
rhand -12.4242 -25.0479
rfingers 7.12502
rthumb 13.6482 -414.58
lclavicle -1.01778e-013 -7.15625e-015
lhumerus -69.8725 56.2104 20.2093
lradius 24.4053
lwrist -15.9895
lhand -34.1201 -36.9673
lfingers 7.12502
lthumb -7.2955 -7.1131
rfemur -3.58028 28.8298 25.0512
rtibia 0.819581
rfoot -12.5716 -29.83
rtoes 7.13691
lfemur 5.62088 -47.809 -13.0668
ltibia -5.21477
lfoot -29.658 56.0563
ltoes 18.602
994
root 0.765791 17.5374 9.37902 10.4893 -2.05484 -8.80968
lowerback 0.448938 5.44081 9.71216
upperback -7.21236 7.66666 -1.68345
thorax -6.40873 3.19999 -7.54788
lowerneck -15.4704 -7.62855 -4.2927
upperneck 30.1093 -13.4219 10.5614
head 13.9213 -4.9923 2.64652
rclavicle 8.05078e-015 -1.51076e-014
rhumerus 17.3941 6.43622 -96.0326
rradius 35.8025
rwrist 12.2218
rhand -12.4482 -24.8259
rfingers 7.12502
rthumb 13.625 -414.36
lclavicle 8.05078e-015 -1.51076e-014
lhumerus -69.3126 56.1576 20.8113
lradius 24.4316
lwrist -15.9332
lhand -34.1978 -37.1037
lfingers 7.12502
lthumb -7.37047 -7.25212
rfemur -3.58123 28.8252 24.8499
rtibia 0.864303
rfoot -12.5559 -29.797
rtoes 7.15577
lfemur 5.68978 -47.868 -13.3207
ltibia -5.17498
lfoot -29.7541 56.1222
ltoes 18.6654
995
root 0.764351 17.5351 9.36074 10.2947 -2.33343 -8.22948
lowerback 0.996735 5.47137 9.0615
upperback -7.27135 7.72754 -1.87729
thorax -6.82009 3.23314 -7.46857
lowerneck -15.5452 -7.69541 -4.3253
upperneck 30.1832 -13.5548 10.6481
head 13.9961 -5.03584 2.66105
rclavicle 7.69297e-014 3.18055e-015
rhumerus 17.547 5.77198 -96.4074
rradius 35.0281
rwrist 12.7843
rhand -12.4404 -24.6695
rfingers 7.12502
rthumb 13.6326 -414.203
lclavicle 7.69297e-014 3.18055e-015
lhumerus -68.684 56.0587 21.4669
lradius 24.4977
lwrist -15.7835
lhand -34.0383 -37.1902
lfingers 7.12502
lthumb -7.21654 -7.33324
rfemur -3.61729 28.9099 24.139
rtibia 1.03005
rfoot -12.5483 -29.7339
rtoes 7.20639
lfemur 5.90178 -48.0635 -14.211
ltibia -5.01919
lfoot -30.4447 56.2497
ltoes 19.2688
